<svg width="18" height="18" fill="none" xmlns="http://www.w3.org/2000/svg"><g opacity=".8" stroke="#FFC000" stroke-width="1.5" stroke-linecap="round" stroke-linejoin="round"><path d="M1.815 9.535c-.102-.162-.153-.243-.182-.367a.88.88 0 010-.336c.029-.124.08-.205.182-.367C2.66 7.13 5.172 3.75 9 3.75c3.83 0 6.341 3.379 7.186 4.715.102.162.153.243.181.367a.879.879 0 010 .336c-.028.124-.08.205-.181.367C15.34 10.87 12.829 14.25 9 14.25c-3.828 0-6.34-3.379-7.185-4.715z"/><path d="M9 11.25a2.25 2.25 0 100-4.5 2.25 2.25 0 000 4.5z"/></g></svg>