<svg width="19" height="18" fill="none" xmlns="http://www.w3.org/2000/svg"><path d="M9.5 1.65c2.533 0 2.85 0 3.88.075C15.991 1.8 17.18 3 17.257 5.4c.08.975.08 1.2.08 3.6 0 2.4 0 2.7-.08 3.6-.079 2.4-1.345 3.6-3.879 3.675-1.029.075-1.266.075-3.879.075-2.533 0-2.85 0-3.8-.075C3.087 16.2 1.9 15 1.82 12.6c-.078-.975-.078-1.2-.078-3.6 0-2.4 0-2.7.079-3.6C1.9 3 3.167 1.8 5.7 1.725c.95-.075 1.267-.075 3.8-.075zM9.5 0C6.888 0 6.57 0 5.62.075 2.139.225.238 2.025.08 5.325 0 6.225 0 6.525 0 9c0 2.475 0 2.775.08 3.675.157 3.3 2.058 5.1 5.54 5.25C6.57 18 6.889 18 9.5 18c2.613 0 2.93 0 3.88-.075 3.482-.15 5.382-1.95 5.54-5.25.08-.9.08-1.2.08-3.675 0-2.475 0-2.775-.08-3.675-.158-3.3-2.058-5.1-5.54-5.25C12.43 0 12.111 0 9.5 0zm0 4.35c-2.692 0-4.908 2.1-4.908 4.65 0 2.55 2.216 4.65 4.908 4.65s4.908-2.1 4.908-4.65c0-2.55-2.216-4.65-4.908-4.65zm0 7.65c-1.742 0-3.167-1.35-3.167-3S7.758 6 9.5 6c1.742 0 3.167 1.35 3.167 3s-1.425 3-3.167 3zm5.067-8.85c-.634 0-1.109.45-1.109 1.05 0 .6.475 1.05 1.109 1.05.633 0 1.108-.45 1.108-1.05 0-.6-.475-1.05-1.108-1.05z" fill="#fff"/></svg>