<svg width="17" height="17" fill="none" xmlns="http://www.w3.org/2000/svg"><path d="M2.125 5.525c0-1.19 0-1.785.232-2.24.203-.4.528-.725.928-.928.455-.232 1.05-.232 2.24-.232h5.95c1.19 0 1.785 0 2.24.232.4.203.725.528.928.928.232.455.232 1.05.232 2.24V9.35c0 1.19 0 1.785-.232 2.24-.203.4-.528.725-.928.928-.455.232-1.05.232-2.24.232H9.693c-.442 0-.663 0-.875.043a2.122 2.122 0 00-.54.19c-.192.098-.364.236-.71.512L5.88 14.847c-.295.236-.442.354-.566.354a.354.354 0 01-.277-.134c-.078-.097-.078-.285-.078-.663V12.75c-.658 0-.988 0-1.258-.072a2.125 2.125 0 01-1.503-1.503c-.072-.27-.072-.6-.072-1.258V5.525z" stroke="#FFC000" stroke-width="1.5" stroke-linecap="round" stroke-linejoin="round" opacity=".8"/></svg>