<svg width="21" height="16" fill="none" xmlns="http://www.w3.org/2000/svg"><path d="M6.604 16c7.925 0 12.26-6.155 12.26-11.492 0-.175-.005-.35-.013-.522A8.485 8.485 0 0021 1.894a9.046 9.046 0 01-2.474.636c.89-.5 1.572-1.291 1.895-2.234a9.011 9.011 0 01-2.736.98A4.444 4.444 0 0014.54 0c-2.38 0-4.31 1.809-4.31 4.039 0 .317.038.625.112.92-3.58-.168-6.756-1.775-8.88-4.22a3.834 3.834 0 00-.584 2.03c0 1.402.76 2.64 1.917 3.363a4.497 4.497 0 01-1.951-.505l-.001.051c0 1.956 1.485 3.59 3.456 3.96a4.583 4.583 0 01-1.945.07c.548 1.604 2.139 2.772 4.025 2.805a9.017 9.017 0 01-5.351 1.729A9.43 9.43 0 010 14.186 12.794 12.794 0 006.604 16z" fill="#fff"/></svg>